# xmcd CD database file
#
# Track frame offsets:
#	150
#	14607
#	34387
#	50578
#	73473
#	92804
#	102951
#	120984
#	138871
#	152779
#	165625
#	175199
#
# Disc length: 2579 seconds
#
# Revision: 0
# Processed by: cddbd v1.5PL3 Copyright (c) Steve Scherf et al.
# Submitted via: CDex 1.51
#
DISCID=a40a110c
DTITLE=Sandee Jones - The oTher side of The snow
DYEAR=2003
DGENRE=Jazz
TTITLE0=the other side of the snow
TTITLE1=i give You me
TTITLE2=already said
TTITLE3=water
TTITLE4=forgive me
TTITLE5=nothing
TTITLE6=please
TTITLE7=israel's rugburns
TTITLE8=amishwatermelon@a.nudebeach
TTITLE9=everything
TTITLE10=jesu christe air
TTITLE11=glorified doubt
EXTD=YEAR: 2003
EXTT0=
EXTT1=
EXTT2=
EXTT3=
EXTT4=
EXTT5=
EXTT6=
EXTT7=
EXTT8=
EXTT9=
EXTT10=
EXTT11=
PLAYORDER=
